<svg xmlns="http://www.w3.org/2000/svg" xmlns:xlink="http://www.w3.org/1999/xlink" contentStyleType="text/css" data-diagram-type="SEQUENCE" height="350px" preserveAspectRatio="none" style="width:327px;height:350px;background:#FFFFFF;" version="1.1" viewBox="0 0 327 350" width="327px" zoomAndPan="magnify"><defs/><g><g><title>Running</title><rect fill="#000000" fill-opacity="0.00000" height="279.0625" width="8" x="36.998" y="36.2969"/><line style="stroke:#181818;stroke-width:0.5;stroke-dasharray:5,5;" x1="40" x2="40" y1="36.2969" y2="315.3594"/></g><g><title>Printing</title><rect fill="#000000" fill-opacity="0.00000" height="279.0625" width="8" x="283.9341" y="36.2969"/><line style="stroke:#181818;stroke-width:0.5;stroke-dasharray:5,5;" x1="287.8843" x2="287.8843" y1="36.2969" y2="315.3594"/></g><g class="participant participant-head" data-participant="Running"><rect fill="#E2E2F0" height="30.2969" rx="2.5" ry="2.5" style="stroke:#181818;stroke-width:0.5;" width="71.9961" x="5" y="5"/><text fill="#000000" font-family="sans-serif" font-size="14" lengthAdjust="spacing" textLength="57.9961" x="12" y="24.9951">Running</text></g><g class="participant participant-tail" data-participant="Running"><rect fill="#E2E2F0" height="30.2969" rx="2.5" ry="2.5" style="stroke:#181818;stroke-width:0.5;" width="71.9961" x="5" y="314.3594"/><text fill="#000000" font-family="sans-serif" font-size="14" lengthAdjust="spacing" textLength="57.9961" x="12" y="334.3545">Running</text></g><g class="participant participant-head" data-participant="Printing"><rect fill="#E2E2F0" height="30.2969" rx="2.5" ry="2.5" style="stroke:#181818;stroke-width:0.5;" width="68.0996" x="253.8843" y="5"/><text fill="#000000" font-family="sans-serif" font-size="14" lengthAdjust="spacing" textLength="54.0996" x="260.8843" y="24.9951">Printing</text></g><g class="participant participant-tail" data-participant="Printing"><rect fill="#E2E2F0" height="30.2969" rx="2.5" ry="2.5" style="stroke:#181818;stroke-width:0.5;" width="68.0996" x="253.8843" y="314.3594"/><text fill="#000000" font-family="sans-serif" font-size="14" lengthAdjust="spacing" textLength="54.0996" x="260.8843" y="334.3545">Printing</text></g><g class="message" data-participant-1="Running" data-participant-2="Printing"><polygon fill="#181818" points="275.9341,63.4297,285.9341,67.4297,275.9341,71.4297,279.9341,67.4297" style="stroke:#181818;stroke-width:1;"/><line style="stroke:#181818;stroke-width:1;" x1="40.998" x2="281.9341" y1="67.4297" y2="67.4297"/><text fill="#000000" font-family="sans-serif" font-size="13" lengthAdjust="spacing" textLength="134.2275" x="47.998" y="62.3638">Is the Printer active?</text></g><g class="message" data-participant-1="Printing" data-participant-2="Running"><polygon fill="#181818" points="51.998,92.5625,41.998,96.5625,51.998,100.5625,47.998,96.5625" style="stroke:#181818;stroke-width:1;"/><line style="stroke:#181818;stroke-width:1;stroke-dasharray:2,2;" x1="45.998" x2="286.9341" y1="96.5625" y2="96.5625"/><text fill="#000000" font-family="sans-serif" font-size="13" lengthAdjust="spacing" textLength="22.7119" x="57.998" y="91.4966">Yes</text></g><g class="message" data-participant-1="Running" data-participant-2="Running"><line style="stroke:#181818;stroke-width:1;" x1="40.998" x2="82.998" y1="125.6953" y2="125.6953"/><line style="stroke:#181818;stroke-width:1;" x1="82.998" x2="82.998" y1="125.6953" y2="138.6953"/><line style="stroke:#181818;stroke-width:1;" x1="41.998" x2="82.998" y1="138.6953" y2="138.6953"/><polygon fill="#181818" points="51.998,134.6953,41.998,138.6953,51.998,142.6953,47.998,138.6953" style="stroke:#181818;stroke-width:1;"/><text fill="#000000" font-family="sans-serif" font-size="13" lengthAdjust="spacing" textLength="169.9014" x="47.998" y="120.6294">Start Running preparation</text></g><g class="message" data-participant-1="Running" data-participant-2="Printing"><polygon fill="#181818" points="275.9341,163.8281,285.9341,167.8281,275.9341,171.8281,279.9341,167.8281" style="stroke:#181818;stroke-width:1;"/><line style="stroke:#181818;stroke-width:1;" x1="40.998" x2="281.9341" y1="167.8281" y2="167.8281"/><text fill="#000000" font-family="sans-serif" font-size="13" lengthAdjust="spacing" textLength="145.7993" x="47.998" y="162.7622">Is the first layer good?</text></g><g class="message" data-participant-1="Printing" data-participant-2="Running"><polygon fill="#181818" points="51.998,192.9609,41.998,196.9609,51.998,200.9609,47.998,196.9609" style="stroke:#181818;stroke-width:1;"/><line style="stroke:#181818;stroke-width:1;stroke-dasharray:2,2;" x1="45.998" x2="286.9341" y1="196.9609" y2="196.9609"/><text fill="#000000" font-family="sans-serif" font-size="13" lengthAdjust="spacing" textLength="22.7119" x="57.998" y="191.895">Yes</text></g><g class="message" data-participant-1="Running" data-participant-2="Running"><line style="stroke:#181818;stroke-width:1;" x1="40.998" x2="82.998" y1="226.0938" y2="226.0938"/><line style="stroke:#181818;stroke-width:1;" x1="82.998" x2="82.998" y1="226.0938" y2="239.0938"/><line style="stroke:#181818;stroke-width:1;" x1="41.998" x2="82.998" y1="239.0938" y2="239.0938"/><polygon fill="#181818" points="51.998,235.0938,41.998,239.0938,51.998,243.0938,47.998,239.0938" style="stroke:#181818;stroke-width:1;"/><text fill="#000000" font-family="sans-serif" font-size="13" lengthAdjust="spacing" textLength="25.5112" x="47.998" y="221.0278">Run</text></g><g class="message" data-participant-1="Running" data-participant-2="Printing"><polygon fill="#181818" points="275.9341,264.2266,285.9341,268.2266,275.9341,272.2266,279.9341,268.2266" style="stroke:#181818;stroke-width:1;"/><line style="stroke:#181818;stroke-width:1;" x1="40.998" x2="281.9341" y1="268.2266" y2="268.2266"/><text fill="#000000" font-family="sans-serif" font-size="13" lengthAdjust="spacing" textLength="222.936" x="47.998" y="263.1606">Has the print finished succesfully?</text></g><g class="message" data-participant-1="Printing" data-participant-2="Running"><polygon fill="#181818" points="51.998,293.3594,41.998,297.3594,51.998,301.3594,47.998,297.3594" style="stroke:#181818;stroke-width:1;"/><line style="stroke:#181818;stroke-width:1;stroke-dasharray:2,2;" x1="45.998" x2="286.9341" y1="297.3594" y2="297.3594"/><text fill="#000000" font-family="sans-serif" font-size="13" lengthAdjust="spacing" textLength="22.7119" x="57.998" y="292.2935">Yes</text></g><!--SRC=[VOqn3i8m40JxlE8-a0-uW1OwP2hAatD9B5bdotT6okznb60e0jrgDRjZ2xFd2VeJtB9dNRE1gu3Ej3MK0Ptw9vsxHlGLj_lIm8Eaiv-VFHguAsPjNCgKCAFwoD_q-xD9Hvz58U1InLECmx7sjxM6u_yBReAqDbN3NcOQG8fp96C9OVcZUW40]--></g></svg>