<svg xmlns="http://www.w3.org/2000/svg" xmlns:xlink="http://www.w3.org/1999/xlink" contentStyleType="text/css" data-diagram-type="ACTIVITY" height="1572px" preserveAspectRatio="none" style="width:205px;height:1572px;background:#FFFFFF;" version="1.1" viewBox="0 0 205 1572" width="205px" zoomAndPan="magnify"><defs/><g><ellipse cx="94.5391" cy="20" fill="#222222" rx="10" ry="10" style="stroke:#222222;stroke-width:1;"/><rect fill="none" height="461.7886" style="stroke:#000000;stroke-width:1.5;" width="183.157" x="11" y="40"/><path d="M102.4639,40 L102.4639,49.2969 L92.4639,59.2969 L11,59.2969" fill="none" style="stroke:#000000;stroke-width:1.5;"/><text fill="#000000" font-family="sans-serif" font-size="14" lengthAdjust="spacing" textLength="81.4639" x="14" y="53.9951">Preperation</text><rect fill="#F1F1F1" height="33.9688" rx="12.5" ry="12.5" style="stroke:#181818;stroke-width:0.5;" width="109.9063" x="39.5859" y="76.2969"/><text fill="#000000" font-family="sans-serif" font-size="12" lengthAdjust="spacing" textLength="89.9063" x="49.5859" y="97.4355">Check weather</text><polygon fill="#F1F1F1" points="70.9438,130.2656,118.1343,130.2656,130.1343,142.2656,118.1343,154.2656,70.9438,154.2656,58.9438,142.2656,70.9438,130.2656" style="stroke:#181818;stroke-width:0.5;"/><text fill="#000000" font-family="sans-serif" font-size="11" lengthAdjust="spacing" textLength="19.0083" x="98.5391" y="164.4761">yes</text><text fill="#000000" font-family="sans-serif" font-size="11" lengthAdjust="spacing" textLength="47.1904" x="70.9438" y="146.0737">Is it dry?</text><text fill="#000000" font-family="sans-serif" font-size="11" lengthAdjust="spacing" textLength="13.7017" x="130.1343" y="139.6714">no</text><ellipse cx="165.8359" cy="142.2656" fill="none" rx="11" ry="11" style="stroke:#222222;stroke-width:1;"/><ellipse cx="165.8359" cy="142.2656" fill="#222222" rx="6" ry="6" style="stroke:#222222;stroke-width:1;"/><rect fill="#F1F1F1" height="33.9688" rx="12.5" ry="12.5" style="stroke:#181818;stroke-width:0.5;" width="112.9766" x="38.0508" y="185.9761"/><text fill="#000000" font-family="sans-serif" font-size="12" lengthAdjust="spacing" textLength="92.9766" x="48.0508" y="207.1147">Change clothes</text><rect fill="#F1F1F1" height="33.9688" rx="12.5" ry="12.5" style="stroke:#181818;stroke-width:0.5;" width="98.1992" x="45.4395" y="239.9448"/><text fill="#000000" font-family="sans-serif" font-size="12" lengthAdjust="spacing" textLength="78.1992" x="55.4395" y="261.0835">Put on watch</text><rect fill="#F1F1F1" height="33.9688" rx="12.5" ry="12.5" style="stroke:#181818;stroke-width:0.5;" width="122.1934" x="33.4424" y="293.9136"/><text fill="#000000" font-family="sans-serif" font-size="12" lengthAdjust="spacing" textLength="102.1934" x="43.4424" y="315.0522">Connect earbuds</text><rect fill="#F1F1F1" height="33.9688" rx="12.5" ry="12.5" style="stroke:#181818;stroke-width:0.5;" width="84.3184" x="52.3799" y="347.8823"/><text fill="#000000" font-family="sans-serif" font-size="12" lengthAdjust="spacing" textLength="64.3184" x="62.3799" y="369.021">Play music</text><rect fill="#F1F1F1" height="33.9688" rx="12.5" ry="12.5" style="stroke:#181818;stroke-width:0.5;" width="89.457" x="49.8105" y="401.8511"/><text fill="#000000" font-family="sans-serif" font-size="12" lengthAdjust="spacing" textLength="69.457" x="59.8105" y="422.9897">Search GPS</text><rect fill="#F1F1F1" height="33.9688" rx="12.5" ry="12.5" style="stroke:#181818;stroke-width:0.5;" width="147.0781" x="21" y="455.8198"/><text fill="#000000" font-family="sans-serif" font-size="12" lengthAdjust="spacing" textLength="127.0781" x="31" y="476.9585">Put on running shoes</text><rect fill="none" height="255.9448" style="stroke:#000000;stroke-width:1.5;" width="151.8796" x="30.2773" y="511.7886"/><path d="M104.9043,511.7886 L104.9043,521.0854 L94.9043,531.0854 L30.2773,531.0854" fill="none" style="stroke:#000000;stroke-width:1.5;"/><text fill="#000000" font-family="sans-serif" font-size="14" lengthAdjust="spacing" textLength="64.627" x="33.2773" y="525.7837">Warm-up</text><rect fill="#F1F1F1" height="33.9688" rx="12.5" ry="12.5" style="stroke:#181818;stroke-width:0.5;" width="84.6934" x="52.1924" y="548.0854"/><text fill="#000000" font-family="sans-serif" font-size="12" lengthAdjust="spacing" textLength="64.6934" x="62.1924" y="569.2241">Go outside</text><polygon fill="#F1F1F1" points="94.5391,602.0542,106.5391,614.0542,94.5391,626.0542,82.5391,614.0542,94.5391,602.0542" style="stroke:#181818;stroke-width:0.5;"/><polygon fill="#F1F1F1" points="52.9211,666.0542,136.157,666.0542,148.157,678.0542,136.157,690.0542,52.9211,690.0542,40.9211,678.0542,52.9211,666.0542" style="stroke:#181818;stroke-width:0.5;"/><text fill="#000000" font-family="sans-serif" font-size="11" lengthAdjust="spacing" textLength="19.0083" x="98.5391" y="700.2646">yes</text><text fill="#000000" font-family="sans-serif" font-size="11" lengthAdjust="spacing" textLength="83.2358" x="52.9211" y="681.8623">GPS connected</text><text fill="#000000" font-family="sans-serif" font-size="11" lengthAdjust="spacing" textLength="13.7017" x="148.157" y="675.46">no</text><rect fill="#F1F1F1" height="33.9688" rx="12.5" ry="12.5" style="stroke:#181818;stroke-width:0.5;" width="108.5234" x="40.2773" y="721.7646"/><text fill="#000000" font-family="sans-serif" font-size="12" lengthAdjust="spacing" textLength="88.5234" x="50.2773" y="742.9033">Start Warm-up</text><rect fill="none" height="326.0781" style="stroke:#000000;stroke-width:1.5;" width="122.8398" x="33.1191" y="777.7334"/><path d="M101.1152,777.7334 L101.1152,787.0303 L91.1152,797.0303 L33.1191,797.0303" fill="none" style="stroke:#000000;stroke-width:1.5;"/><text fill="#000000" font-family="sans-serif" font-size="14" lengthAdjust="spacing" textLength="57.9961" x="36.1191" y="791.7285">Running</text><rect fill="#F1F1F1" height="33.9688" rx="12.5" ry="12.5" style="stroke:#181818;stroke-width:0.5;" width="102.8398" x="43.1191" y="814.0303"/><text fill="#000000" font-family="sans-serif" font-size="12" lengthAdjust="spacing" textLength="82.8398" x="53.1191" y="835.1689">Start Running</text><rect fill="#F1F1F1" height="47.9375" rx="12.5" ry="12.5" style="stroke:#181818;stroke-width:0.5;" width="87.8398" x="50.6191" y="867.999"/><text fill="#000000" font-family="sans-serif" font-size="12" lengthAdjust="spacing" textLength="53.3848" x="60.6191" y="889.1377">Ran 1km</text><text fill="#000000" font-family="sans-serif" font-size="12" lengthAdjust="spacing" textLength="67.8398" x="60.6191" y="903.1064">Check time</text><rect fill="#F1F1F1" height="47.9375" rx="12.5" ry="12.5" style="stroke:#181818;stroke-width:0.5;" width="87.8398" x="50.6191" y="935.9365"/><text fill="#000000" font-family="sans-serif" font-size="12" lengthAdjust="spacing" textLength="53.3848" x="60.6191" y="957.0752">Ran 2km</text><text fill="#000000" font-family="sans-serif" font-size="12" lengthAdjust="spacing" textLength="67.8398" x="60.6191" y="971.0439">Check time</text><rect fill="#F1F1F1" height="33.9688" rx="12.5" ry="12.5" style="stroke:#181818;stroke-width:0.5;" width="81.0195" x="54.0293" y="1003.874"/><text fill="#000000" font-family="sans-serif" font-size="12" lengthAdjust="spacing" textLength="61.0195" x="64.0293" y="1025.0127">Ran 10km</text><rect fill="#F1F1F1" height="33.9688" rx="12.5" ry="12.5" style="stroke:#181818;stroke-width:0.5;" width="97.4023" x="45.8379" y="1057.8428"/><text fill="#000000" font-family="sans-serif" font-size="12" lengthAdjust="spacing" textLength="77.4023" x="55.8379" y="1078.9814">Stop running</text><rect fill="none" height="406.0781" style="stroke:#000000;stroke-width:1.5;" width="127.2695" x="30.9043" y="1113.8115"/><path d="M95.4619,1113.8115 L95.4619,1123.1084 L85.4619,1133.1084 L30.9043,1133.1084" fill="none" style="stroke:#000000;stroke-width:1.5;"/><text fill="#000000" font-family="sans-serif" font-size="14" lengthAdjust="spacing" textLength="54.5576" x="33.9043" y="1127.8066">End run</text><rect fill="#F1F1F1" height="33.9688" rx="12.5" ry="12.5" style="stroke:#181818;stroke-width:0.5;" width="82.5898" x="53.2441" y="1150.1084"/><text fill="#000000" font-family="sans-serif" font-size="12" lengthAdjust="spacing" textLength="62.5898" x="63.2441" y="1171.2471">Cool down</text><rect fill="#F1F1F1" height="33.9688" rx="12.5" ry="12.5" style="stroke:#181818;stroke-width:0.5;" width="74.4746" x="57.3018" y="1204.0771"/><text fill="#000000" font-family="sans-serif" font-size="12" lengthAdjust="spacing" textLength="54.4746" x="67.3018" y="1225.2158">Go home</text><rect fill="#F1F1F1" height="33.9688" rx="12.5" ry="12.5" style="stroke:#181818;stroke-width:0.5;" width="46.6777" x="71.2002" y="1258.0459"/><text fill="#000000" font-family="sans-serif" font-size="12" lengthAdjust="spacing" textLength="26.6777" x="81.2002" y="1279.1846">Rest</text><rect fill="#F1F1F1" height="33.9688" rx="12.5" ry="12.5" style="stroke:#181818;stroke-width:0.5;" width="107.2695" x="40.9043" y="1312.0146"/><text fill="#000000" font-family="sans-serif" font-size="12" lengthAdjust="spacing" textLength="87.2695" x="50.9043" y="1333.1533">Take off shoes</text><rect fill="#F1F1F1" height="33.9688" rx="12.5" ry="12.5" style="stroke:#181818;stroke-width:0.5;" width="90.0664" x="49.5059" y="1365.9834"/><text fill="#000000" font-family="sans-serif" font-size="12" lengthAdjust="spacing" textLength="70.0664" x="59.5059" y="1387.1221">Drink water</text><rect fill="#F1F1F1" height="33.9688" rx="12.5" ry="12.5" style="stroke:#181818;stroke-width:0.5;" width="88.543" x="50.2676" y="1419.9521"/><text fill="#000000" font-family="sans-serif" font-size="12" lengthAdjust="spacing" textLength="68.543" x="60.2676" y="1441.0908">Check Print</text><rect fill="#F1F1F1" height="33.9688" rx="12.5" ry="12.5" style="stroke:#181818;stroke-width:0.5;" width="64.6953" x="62.1914" y="1473.9209"/><text fill="#000000" font-family="sans-serif" font-size="12" lengthAdjust="spacing" textLength="44.6953" x="72.1914" y="1495.0596">Shower</text><ellipse cx="94.5391" cy="1550.8896" fill="none" rx="11" ry="11" style="stroke:#222222;stroke-width:1;"/><ellipse cx="94.5391" cy="1550.8896" fill="#222222" rx="6" ry="6" style="stroke:#222222;stroke-width:1;"/><line style="stroke:#181818;stroke-width:1;" x1="94.5391" x2="94.5391" y1="154.2656" y2="185.9761"/><polygon fill="#181818" points="90.5391,175.9761,94.5391,185.9761,98.5391,175.9761,94.5391,179.9761" style="stroke:#181818;stroke-width:1;"/><line style="stroke:#181818;stroke-width:1;" x1="130.1343" x2="154.8359" y1="142.2656" y2="142.2656"/><polygon fill="#181818" points="144.8359,138.2656,154.8359,142.2656,144.8359,146.2656,148.8359,142.2656" style="stroke:#181818;stroke-width:1;"/><line style="stroke:#181818;stroke-width:1;" x1="94.5391" x2="94.5391" y1="110.2656" y2="130.2656"/><polygon fill="#181818" points="90.5391,120.2656,94.5391,130.2656,98.5391,120.2656,94.5391,124.2656" style="stroke:#181818;stroke-width:1;"/><line style="stroke:#181818;stroke-width:1;" x1="94.5391" x2="94.5391" y1="219.9448" y2="239.9448"/><polygon fill="#181818" points="90.5391,229.9448,94.5391,239.9448,98.5391,229.9448,94.5391,233.9448" style="stroke:#181818;stroke-width:1;"/><line style="stroke:#181818;stroke-width:1;" x1="94.5391" x2="94.5391" y1="273.9136" y2="293.9136"/><polygon fill="#181818" points="90.5391,283.9136,94.5391,293.9136,98.5391,283.9136,94.5391,287.9136" style="stroke:#181818;stroke-width:1;"/><line style="stroke:#181818;stroke-width:1;" x1="94.5391" x2="94.5391" y1="327.8823" y2="347.8823"/><polygon fill="#181818" points="90.5391,337.8823,94.5391,347.8823,98.5391,337.8823,94.5391,341.8823" style="stroke:#181818;stroke-width:1;"/><line style="stroke:#181818;stroke-width:1;" x1="94.5391" x2="94.5391" y1="381.8511" y2="401.8511"/><polygon fill="#181818" points="90.5391,391.8511,94.5391,401.8511,98.5391,391.8511,94.5391,395.8511" style="stroke:#181818;stroke-width:1;"/><line style="stroke:#181818;stroke-width:1;" x1="94.5391" x2="94.5391" y1="435.8198" y2="455.8198"/><polygon fill="#181818" points="90.5391,445.8198,94.5391,455.8198,98.5391,445.8198,94.5391,449.8198" style="stroke:#181818;stroke-width:1;"/><line style="stroke:#181818;stroke-width:1;" x1="94.5391" x2="94.5391" y1="30" y2="76.2969"/><polygon fill="#181818" points="90.5391,66.2969,94.5391,76.2969,98.5391,66.2969,94.5391,70.2969" style="stroke:#181818;stroke-width:1;"/><line style="stroke:#181818;stroke-width:1;" x1="94.5391" x2="94.5391" y1="626.0542" y2="666.0542"/><polygon fill="#181818" points="90.5391,656.0542,94.5391,666.0542,98.5391,656.0542,94.5391,660.0542" style="stroke:#181818;stroke-width:1;"/><line style="stroke:#181818;stroke-width:1;" x1="148.157" x2="160.157" y1="678.0542" y2="678.0542"/><polygon fill="#181818" points="156.157,646.0542,160.157,636.0542,164.157,646.0542,160.157,642.0542" style="stroke:#181818;stroke-width:1;"/><line style="stroke:#181818;stroke-width:1;" x1="160.157" x2="160.157" y1="614.0542" y2="678.0542"/><line style="stroke:#181818;stroke-width:1;" x1="160.157" x2="106.5391" y1="614.0542" y2="614.0542"/><polygon fill="#181818" points="116.5391,610.0542,106.5391,614.0542,116.5391,618.0542,112.5391,614.0542" style="stroke:#181818;stroke-width:1;"/><line style="stroke:#181818;stroke-width:1;" x1="94.5391" x2="94.5391" y1="582.0542" y2="602.0542"/><polygon fill="#181818" points="90.5391,592.0542,94.5391,602.0542,98.5391,592.0542,94.5391,596.0542" style="stroke:#181818;stroke-width:1;"/><line style="stroke:#181818;stroke-width:1;" x1="94.5391" x2="94.5391" y1="690.0542" y2="721.7646"/><polygon fill="#181818" points="90.5391,711.7646,94.5391,721.7646,98.5391,711.7646,94.5391,715.7646" style="stroke:#181818;stroke-width:1;"/><line style="stroke:#181818;stroke-width:1;" x1="94.5391" x2="94.5391" y1="489.7886" y2="548.0854"/><polygon fill="#181818" points="90.5391,538.0854,94.5391,548.0854,98.5391,538.0854,94.5391,542.0854" style="stroke:#181818;stroke-width:1;"/><line style="stroke:#181818;stroke-width:1;" x1="94.5391" x2="94.5391" y1="847.999" y2="867.999"/><polygon fill="#181818" points="90.5391,857.999,94.5391,867.999,98.5391,857.999,94.5391,861.999" style="stroke:#181818;stroke-width:1;"/><line style="stroke:#181818;stroke-width:1;" x1="94.5391" x2="94.5391" y1="915.9365" y2="935.9365"/><polygon fill="#181818" points="90.5391,925.9365,94.5391,935.9365,98.5391,925.9365,94.5391,929.9365" style="stroke:#181818;stroke-width:1;"/><line style="stroke:#181818;stroke-width:1;" x1="94.5391" x2="94.5391" y1="983.874" y2="1003.874"/><polygon fill="#181818" points="90.5391,993.874,94.5391,1003.874,98.5391,993.874,94.5391,997.874" style="stroke:#181818;stroke-width:1;"/><line style="stroke:#181818;stroke-width:1;" x1="94.5391" x2="94.5391" y1="1037.8428" y2="1057.8428"/><polygon fill="#181818" points="90.5391,1047.8428,94.5391,1057.8428,98.5391,1047.8428,94.5391,1051.8428" style="stroke:#181818;stroke-width:1;"/><line style="stroke:#181818;stroke-width:1;" x1="94.5391" x2="94.5391" y1="755.7334" y2="814.0303"/><polygon fill="#181818" points="90.5391,804.0303,94.5391,814.0303,98.5391,804.0303,94.5391,808.0303" style="stroke:#181818;stroke-width:1;"/><line style="stroke:#181818;stroke-width:1;" x1="94.5391" x2="94.5391" y1="1184.0771" y2="1204.0771"/><polygon fill="#181818" points="90.5391,1194.0771,94.5391,1204.0771,98.5391,1194.0771,94.5391,1198.0771" style="stroke:#181818;stroke-width:1;"/><line style="stroke:#181818;stroke-width:1;" x1="94.5391" x2="94.5391" y1="1238.0459" y2="1258.0459"/><polygon fill="#181818" points="90.5391,1248.0459,94.5391,1258.0459,98.5391,1248.0459,94.5391,1252.0459" style="stroke:#181818;stroke-width:1;"/><line style="stroke:#181818;stroke-width:1;" x1="94.5391" x2="94.5391" y1="1292.0146" y2="1312.0146"/><polygon fill="#181818" points="90.5391,1302.0146,94.5391,1312.0146,98.5391,1302.0146,94.5391,1306.0146" style="stroke:#181818;stroke-width:1;"/><line style="stroke:#181818;stroke-width:1;" x1="94.5391" x2="94.5391" y1="1345.9834" y2="1365.9834"/><polygon fill="#181818" points="90.5391,1355.9834,94.5391,1365.9834,98.5391,1355.9834,94.5391,1359.9834" style="stroke:#181818;stroke-width:1;"/><line style="stroke:#181818;stroke-width:1;" x1="94.5391" x2="94.5391" y1="1399.9521" y2="1419.9521"/><polygon fill="#181818" points="90.5391,1409.9521,94.5391,1419.9521,98.5391,1409.9521,94.5391,1413.9521" style="stroke:#181818;stroke-width:1;"/><line style="stroke:#181818;stroke-width:1;" x1="94.5391" x2="94.5391" y1="1453.9209" y2="1473.9209"/><polygon fill="#181818" points="90.5391,1463.9209,94.5391,1473.9209,98.5391,1463.9209,94.5391,1467.9209" style="stroke:#181818;stroke-width:1;"/><line style="stroke:#181818;stroke-width:1;" x1="94.5391" x2="94.5391" y1="1091.8115" y2="1150.1084"/><polygon fill="#181818" points="90.5391,1140.1084,94.5391,1150.1084,98.5391,1140.1084,94.5391,1144.1084" style="stroke:#181818;stroke-width:1;"/><line style="stroke:#181818;stroke-width:1;" x1="94.5391" x2="94.5391" y1="1507.8896" y2="1539.8896"/><polygon fill="#181818" points="90.5391,1529.8896,94.5391,1539.8896,98.5391,1529.8896,94.5391,1533.8896" style="stroke:#181818;stroke-width:1;"/><!--SRC=[RL6xRiCm3Dpr5HpZeK3JqHuwf47GpOWBTEcYodGas2O3YOQHloyLsmZGLWl14yLxA8cDOawHfolK4QyOhGGcKnuykXvcjE8nLYPqi7jF40JQU7ijG5627N5Xal3L78U4iBjXAWnI6xhytj85mGsiewaoPJq9CC5inNbj3qo4JW1j_9xQ-y1WRp1EAJXj6iMTXrFTF9x6YIZG1PBdl569u9A5h_8_RHoVj2jF33n92YrM9bkoiXQOVHXKfsu5j_1ZMq18ToT0BAk7iicnR1ihS_n5TLwKR7DhgqhFbc3VZr-qn2TXn1Lz-HVTF_TZTgiPRlR-6iliUfapum5Qdgcwc_IyxC4aMZviZy1TjyLJliL0VSux_z_wdxLYURZnF6VuGQKdg_W1]--></g></svg>