<svg xmlns="http://www.w3.org/2000/svg" xmlns:xlink="http://www.w3.org/1999/xlink" contentStyleType="text/css" data-diagram-type="ACTIVITY" height="1263px" preserveAspectRatio="none" style="width:443px;height:1263px;background:#FFFFFF;" version="1.1" viewBox="0 0 443 1263" width="443px" zoomAndPan="magnify"><defs/><g><ellipse cx="130.5718" cy="20" fill="#222222" rx="10" ry="10" style="stroke:#222222;stroke-width:1;"/><rect fill="#F1F1F1" height="33.9688" rx="12.5" ry="12.5" style="stroke:#181818;stroke-width:0.5;" width="121.5254" x="69.8091" y="50"/><text fill="#000000" font-family="sans-serif" font-size="12" lengthAdjust="spacing" textLength="101.5254" x="79.8091" y="71.1387">Make CAD Model</text><rect fill="#F1F1F1" height="33.9688" rx="12.5" ry="12.5" style="stroke:#181818;stroke-width:0.5;" width="124.0215" x="68.561" y="103.9688"/><text fill="#000000" font-family="sans-serif" font-size="12" lengthAdjust="spacing" textLength="104.0215" x="78.561" y="125.1074">Convert to stl-file</text><rect fill="#F1F1F1" height="33.9688" rx="12.5" ry="12.5" style="stroke:#181818;stroke-width:0.5;" width="110.9258" x="75.1089" y="157.9375"/><text fill="#000000" font-family="sans-serif" font-size="12" lengthAdjust="spacing" textLength="90.9258" x="85.1089" y="179.0762">Preheat printer</text><rect fill="#F1F1F1" height="33.9688" rx="12.5" ry="12.5" style="stroke:#181818;stroke-width:0.5;" width="185.6855" x="37.729" y="255.9063"/><text fill="#000000" font-family="sans-serif" font-size="12" lengthAdjust="spacing" textLength="165.6855" x="47.729" y="277.0449">Set/Change printer settings</text><rect fill="#F1F1F1" height="33.9688" rx="12.5" ry="12.5" style="stroke:#181818;stroke-width:0.5;" width="80.2754" x="90.4341" y="309.875"/><text fill="#000000" font-family="sans-serif" font-size="12" lengthAdjust="spacing" textLength="60.2754" x="100.4341" y="331.0137">Slice print</text><rect fill="#F1F1F1" height="33.9688" rx="12.5" ry="12.5" style="stroke:#181818;stroke-width:0.5;" width="128.9141" x="66.1147" y="363.8438"/><text fill="#000000" font-family="sans-serif" font-size="12" lengthAdjust="spacing" textLength="108.9141" x="76.1147" y="384.9824">Put file on sd-card</text><rect fill="#F1F1F1" height="33.9688" rx="12.5" ry="12.5" style="stroke:#181818;stroke-width:0.5;" width="150.1309" x="55.5063" y="417.8125"/><text fill="#000000" font-family="sans-serif" font-size="12" lengthAdjust="spacing" textLength="130.1309" x="65.5063" y="438.9512">Put SD-card in printer</text><polygon fill="#F1F1F1" points="130.5718,475.7344,142.5718,487.7344,130.5718,499.7344,118.5718,487.7344,130.5718,475.7344" style="stroke:#181818;stroke-width:0.5;"/><polygon fill="#F1F1F1" points="58.54,579.7188,202.6035,579.7188,214.6035,591.7188,202.6035,603.7188,58.54,603.7188,46.54,591.7188,58.54,579.7188" style="stroke:#181818;stroke-width:0.5;"/><text fill="#000000" font-family="sans-serif" font-size="11" lengthAdjust="spacing" textLength="19.0083" x="134.5718" y="613.9292">yes</text><text fill="#000000" font-family="sans-serif" font-size="11" lengthAdjust="spacing" textLength="144.0635" x="58.54" y="595.5269">Printer up to Temperature</text><text fill="#000000" font-family="sans-serif" font-size="11" lengthAdjust="spacing" textLength="13.7017" x="214.6035" y="589.1245">no</text><rect fill="#F1F1F1" height="33.9688" rx="12.5" ry="12.5" style="stroke:#181818;stroke-width:0.5;" width="104.5625" x="238.6035" y="515.75"/><text fill="#000000" font-family="sans-serif" font-size="12" lengthAdjust="spacing" textLength="84.5625" x="248.6035" y="536.8887">Wait a minute</text><rect fill="#F1F1F1" height="33.9688" rx="12.5" ry="12.5" style="stroke:#181818;stroke-width:0.5;" width="81.3242" x="89.9097" y="635.4292"/><text fill="#000000" font-family="sans-serif" font-size="12" lengthAdjust="spacing" textLength="61.3242" x="99.9097" y="656.5679">Start print</text><rect fill="#F1F1F1" height="33.9688" rx="12.5" ry="12.5" style="stroke:#181818;stroke-width:0.5;" width="118.0977" x="71.5229" y="689.3979"/><text fill="#000000" font-family="sans-serif" font-size="12" lengthAdjust="spacing" textLength="98.0977" x="81.5229" y="710.5366">Check first layer</text><polygon fill="#F1F1F1" points="130.5718,211.9063,142.5718,223.9063,130.5718,235.9063,118.5718,223.9063,130.5718,211.9063" style="stroke:#181818;stroke-width:0.5;"/><polygon fill="#F1F1F1" points="83.145,743.3667,177.9985,743.3667,189.9985,755.3667,177.9985,767.3667,83.145,767.3667,71.145,755.3667,83.145,743.3667" style="stroke:#181818;stroke-width:0.5;"/><text fill="#000000" font-family="sans-serif" font-size="11" lengthAdjust="spacing" textLength="13.7017" x="134.5718" y="777.5771">no</text><text fill="#000000" font-family="sans-serif" font-size="11" lengthAdjust="spacing" textLength="94.8535" x="83.145" y="759.1748">First layer failed?</text><text fill="#000000" font-family="sans-serif" font-size="11" lengthAdjust="spacing" textLength="19.0083" x="189.9985" y="752.7725">yes</text><rect fill="#F1F1F1" height="33.9688" rx="12.5" ry="12.5" style="stroke:#181818;stroke-width:0.5;" width="79.291" x="353.166" y="461.7813"/><text fill="#000000" font-family="sans-serif" font-size="12" lengthAdjust="spacing" textLength="59.291" x="363.166" y="482.9199">Stop print</text><rect fill="#F1F1F1" height="33.9688" rx="12.5" ry="12.5" style="stroke:#181818;stroke-width:0.5;" width="105.9688" x="77.5874" y="799.0771"/><text fill="#000000" font-family="sans-serif" font-size="12" lengthAdjust="spacing" textLength="85.9688" x="87.5874" y="820.2158">Continue print</text><polygon fill="#F1F1F1" points="130.5718,853.0459,142.5718,865.0459,130.5718,877.0459,118.5718,865.0459,130.5718,853.0459" style="stroke:#181818;stroke-width:0.5;"/><polygon fill="#F1F1F1" points="91.4514,951.0146,169.6921,951.0146,181.6921,963.0146,169.6921,975.0146,91.4514,975.0146,79.4514,963.0146,91.4514,951.0146" style="stroke:#181818;stroke-width:0.5;"/><text fill="#000000" font-family="sans-serif" font-size="11" lengthAdjust="spacing" textLength="19.0083" x="134.5718" y="985.2251">yes</text><text fill="#000000" font-family="sans-serif" font-size="11" lengthAdjust="spacing" textLength="78.2407" x="91.4514" y="966.8228">Print finished?</text><text fill="#000000" font-family="sans-serif" font-size="11" lengthAdjust="spacing" textLength="13.7017" x="181.6921" y="960.4204">no</text><rect fill="#F1F1F1" height="33.9688" rx="12.5" ry="12.5" style="stroke:#181818;stroke-width:0.5;" width="45.207" x="205.6921" y="887.0459"/><text fill="#000000" font-family="sans-serif" font-size="12" lengthAdjust="spacing" textLength="25.207" x="215.6921" y="908.1846">wait</text><polygon fill="#F1F1F1" points="83.623,1006.7251,177.5205,1006.7251,189.5205,1018.7251,177.5205,1030.7251,83.623,1030.7251,71.623,1018.7251,83.623,1006.7251" style="stroke:#181818;stroke-width:0.5;"/><text fill="#000000" font-family="sans-serif" font-size="11" lengthAdjust="spacing" textLength="93.8975" x="83.623" y="1022.5332">Print succeeded?</text><text fill="#000000" font-family="sans-serif" font-size="11" lengthAdjust="spacing" textLength="13.7017" x="57.9214" y="1016.1309">no</text><text fill="#000000" font-family="sans-serif" font-size="11" lengthAdjust="spacing" textLength="19.0083" x="189.5205" y="1016.1309">yes</text><rect fill="#F1F1F1" height="33.9688" rx="12.5" ry="12.5" style="stroke:#181818;stroke-width:0.5;" width="101.2461" x="11" y="1040.7251"/><text fill="#000000" font-family="sans-serif" font-size="12" lengthAdjust="spacing" textLength="81.2461" x="21" y="1061.8638">Remove print</text><rect fill="#F1F1F1" height="33.9688" rx="12.5" ry="12.5" style="stroke:#181818;stroke-width:0.5;" width="80.4863" x="21.3799" y="1094.6938"/><text fill="#000000" font-family="sans-serif" font-size="12" lengthAdjust="spacing" textLength="60.4863" x="31.3799" y="1115.8325">Clean bed</text><rect fill="#F1F1F1" height="33.9688" rx="12.5" ry="12.5" style="stroke:#181818;stroke-width:0.5;" width="79.8887" x="21.6787" y="1148.6626"/><text fill="#000000" font-family="sans-serif" font-size="12" lengthAdjust="spacing" textLength="59.8887" x="31.6787" y="1169.8013">Start over</text><ellipse cx="61.623" cy="1227.6001" fill="none" rx="11" ry="11" style="stroke:#222222;stroke-width:1;"/><ellipse cx="61.623" cy="1227.6001" fill="#222222" rx="6" ry="6" style="stroke:#222222;stroke-width:1;"/><rect fill="#F1F1F1" height="33.9688" rx="12.5" ry="12.5" style="stroke:#181818;stroke-width:0.5;" width="101.2461" x="148.8975" y="1040.7251"/><text fill="#000000" font-family="sans-serif" font-size="12" lengthAdjust="spacing" textLength="81.2461" x="158.8975" y="1061.8638">Remove print</text><rect fill="#F1F1F1" height="33.9688" rx="12.5" ry="12.5" style="stroke:#181818;stroke-width:0.5;" width="80.4863" x="159.2773" y="1094.6938"/><text fill="#000000" font-family="sans-serif" font-size="12" lengthAdjust="spacing" textLength="60.4863" x="169.2773" y="1115.8325">Clean bed</text><rect fill="#F1F1F1" height="47.9375" rx="12.5" ry="12.5" style="stroke:#181818;stroke-width:0.5;" width="134.0996" x="132.4707" y="1148.6626"/><text fill="#000000" font-family="sans-serif" font-size="12" lengthAdjust="spacing" textLength="87.7676" x="142.4707" y="1169.8013">Remove exces</text><text fill="#000000" font-family="sans-serif" font-size="12" lengthAdjust="spacing" textLength="114.0996" x="142.4707" y="1183.77">material from print</text><ellipse cx="199.5205" cy="1241.5688" fill="none" rx="11" ry="11" style="stroke:#222222;stroke-width:1;"/><ellipse cx="199.5205" cy="1241.5688" fill="#222222" rx="6" ry="6" style="stroke:#222222;stroke-width:1;"/><line style="stroke:#181818;stroke-width:1;" x1="130.5718" x2="130.5718" y1="30" y2="50"/><polygon fill="#181818" points="126.5718,40,130.5718,50,134.5718,40,130.5718,44" style="stroke:#181818;stroke-width:1;"/><line style="stroke:#181818;stroke-width:1;" x1="130.5718" x2="130.5718" y1="83.9688" y2="103.9688"/><polygon fill="#181818" points="126.5718,93.9688,130.5718,103.9688,134.5718,93.9688,130.5718,97.9688" style="stroke:#181818;stroke-width:1;"/><line style="stroke:#181818;stroke-width:1;" x1="130.5718" x2="130.5718" y1="137.9375" y2="157.9375"/><polygon fill="#181818" points="126.5718,147.9375,130.5718,157.9375,134.5718,147.9375,130.5718,151.9375" style="stroke:#181818;stroke-width:1;"/><line style="stroke:#181818;stroke-width:1;" x1="130.5718" x2="130.5718" y1="289.875" y2="309.875"/><polygon fill="#181818" points="126.5718,299.875,130.5718,309.875,134.5718,299.875,130.5718,303.875" style="stroke:#181818;stroke-width:1;"/><line style="stroke:#181818;stroke-width:1;" x1="130.5718" x2="130.5718" y1="343.8438" y2="363.8438"/><polygon fill="#181818" points="126.5718,353.8438,130.5718,363.8438,134.5718,353.8438,130.5718,357.8438" style="stroke:#181818;stroke-width:1;"/><line style="stroke:#181818;stroke-width:1;" x1="130.5718" x2="130.5718" y1="397.8125" y2="417.8125"/><polygon fill="#181818" points="126.5718,407.8125,130.5718,417.8125,134.5718,407.8125,130.5718,411.8125" style="stroke:#181818;stroke-width:1;"/><line style="stroke:#181818;stroke-width:1;" x1="130.5718" x2="130.5718" y1="499.7344" y2="579.7188"/><polygon fill="#181818" points="126.5718,569.7188,130.5718,579.7188,134.5718,569.7188,130.5718,573.7188" style="stroke:#181818;stroke-width:1;"/><line style="stroke:#181818;stroke-width:1;" x1="214.6035" x2="290.8848" y1="591.7188" y2="591.7188"/><line style="stroke:#181818;stroke-width:1;" x1="290.8848" x2="290.8848" y1="549.7188" y2="591.7188"/><polygon fill="#181818" points="286.8848,559.7188,290.8848,549.7188,294.8848,559.7188,290.8848,555.7188" style="stroke:#181818;stroke-width:1;"/><line style="stroke:#181818;stroke-width:1;" x1="290.8848" x2="290.8848" y1="487.7344" y2="515.75"/><line style="stroke:#181818;stroke-width:1;" x1="290.8848" x2="142.5718" y1="487.7344" y2="487.7344"/><polygon fill="#181818" points="152.5718,483.7344,142.5718,487.7344,152.5718,491.7344,148.5718,487.7344" style="stroke:#181818;stroke-width:1;"/><line style="stroke:#181818;stroke-width:1;" x1="130.5718" x2="130.5718" y1="451.7813" y2="475.7344"/><polygon fill="#181818" points="126.5718,465.7344,130.5718,475.7344,134.5718,465.7344,130.5718,469.7344" style="stroke:#181818;stroke-width:1;"/><line style="stroke:#181818;stroke-width:1;" x1="130.5718" x2="130.5718" y1="603.7188" y2="635.4292"/><polygon fill="#181818" points="126.5718,625.4292,130.5718,635.4292,134.5718,625.4292,130.5718,629.4292" style="stroke:#181818;stroke-width:1;"/><line style="stroke:#181818;stroke-width:1;" x1="130.5718" x2="130.5718" y1="669.3979" y2="689.3979"/><polygon fill="#181818" points="126.5718,679.3979,130.5718,689.3979,134.5718,679.3979,130.5718,683.3979" style="stroke:#181818;stroke-width:1;"/><line style="stroke:#181818;stroke-width:1;" x1="130.5718" x2="130.5718" y1="235.9063" y2="255.9063"/><polygon fill="#181818" points="126.5718,245.9063,130.5718,255.9063,134.5718,245.9063,130.5718,249.9063" style="stroke:#181818;stroke-width:1;"/><line style="stroke:#181818;stroke-width:1;" x1="189.9985" x2="392.8115" y1="755.3667" y2="755.3667"/><line style="stroke:#181818;stroke-width:1;" x1="392.8115" x2="392.8115" y1="495.75" y2="755.3667"/><polygon fill="#181818" points="388.8115,505.75,392.8115,495.75,396.8115,505.75,392.8115,501.75" style="stroke:#181818;stroke-width:1;"/><line style="stroke:#181818;stroke-width:1;" x1="392.8115" x2="392.8115" y1="223.9063" y2="461.7813"/><line style="stroke:#181818;stroke-width:1;" x1="392.8115" x2="142.5718" y1="223.9063" y2="223.9063"/><polygon fill="#181818" points="152.5718,219.9063,142.5718,223.9063,152.5718,227.9063,148.5718,223.9063" style="stroke:#181818;stroke-width:1;"/><line style="stroke:#181818;stroke-width:1;" x1="130.5718" x2="130.5718" y1="723.3667" y2="743.3667"/><polygon fill="#181818" points="126.5718,733.3667,130.5718,743.3667,134.5718,733.3667,130.5718,737.3667" style="stroke:#181818;stroke-width:1;"/><line style="stroke:#181818;stroke-width:1;" x1="130.5718" x2="130.5718" y1="191.9063" y2="211.9063"/><polygon fill="#181818" points="126.5718,201.9063,130.5718,211.9063,134.5718,201.9063,130.5718,205.9063" style="stroke:#181818;stroke-width:1;"/><line style="stroke:#181818;stroke-width:1;" x1="130.5718" x2="130.5718" y1="767.3667" y2="799.0771"/><polygon fill="#181818" points="126.5718,789.0771,130.5718,799.0771,134.5718,789.0771,130.5718,793.0771" style="stroke:#181818;stroke-width:1;"/><line style="stroke:#181818;stroke-width:1;" x1="130.5718" x2="130.5718" y1="877.0459" y2="951.0146"/><polygon fill="#181818" points="126.5718,941.0146,130.5718,951.0146,134.5718,941.0146,130.5718,945.0146" style="stroke:#181818;stroke-width:1;"/><line style="stroke:#181818;stroke-width:1;" x1="181.6921" x2="228.2957" y1="963.0146" y2="963.0146"/><line style="stroke:#181818;stroke-width:1;" x1="228.2957" x2="228.2957" y1="921.0146" y2="963.0146"/><polygon fill="#181818" points="224.2957,931.0146,228.2957,921.0146,232.2957,931.0146,228.2957,927.0146" style="stroke:#181818;stroke-width:1;"/><line style="stroke:#181818;stroke-width:1;" x1="228.2957" x2="228.2957" y1="865.0459" y2="887.0459"/><line style="stroke:#181818;stroke-width:1;" x1="228.2957" x2="142.5718" y1="865.0459" y2="865.0459"/><polygon fill="#181818" points="152.5718,861.0459,142.5718,865.0459,152.5718,869.0459,148.5718,865.0459" style="stroke:#181818;stroke-width:1;"/><line style="stroke:#181818;stroke-width:1;" x1="130.5718" x2="130.5718" y1="833.0459" y2="853.0459"/><polygon fill="#181818" points="126.5718,843.0459,130.5718,853.0459,134.5718,843.0459,130.5718,847.0459" style="stroke:#181818;stroke-width:1;"/><line style="stroke:#181818;stroke-width:1;" x1="61.623" x2="61.623" y1="1074.6938" y2="1094.6938"/><polygon fill="#181818" points="57.623,1084.6938,61.623,1094.6938,65.623,1084.6938,61.623,1088.6938" style="stroke:#181818;stroke-width:1;"/><line style="stroke:#181818;stroke-width:1;" x1="61.623" x2="61.623" y1="1128.6626" y2="1148.6626"/><polygon fill="#181818" points="57.623,1138.6626,61.623,1148.6626,65.623,1138.6626,61.623,1142.6626" style="stroke:#181818;stroke-width:1;"/><line style="stroke:#181818;stroke-width:1;" x1="61.623" x2="61.623" y1="1182.6313" y2="1216.6001"/><polygon fill="#181818" points="57.623,1206.6001,61.623,1216.6001,65.623,1206.6001,61.623,1210.6001" style="stroke:#181818;stroke-width:1;"/><line style="stroke:#181818;stroke-width:1;" x1="199.5205" x2="199.5205" y1="1074.6938" y2="1094.6938"/><polygon fill="#181818" points="195.5205,1084.6938,199.5205,1094.6938,203.5205,1084.6938,199.5205,1088.6938" style="stroke:#181818;stroke-width:1;"/><line style="stroke:#181818;stroke-width:1;" x1="199.5205" x2="199.5205" y1="1128.6626" y2="1148.6626"/><polygon fill="#181818" points="195.5205,1138.6626,199.5205,1148.6626,203.5205,1138.6626,199.5205,1142.6626" style="stroke:#181818;stroke-width:1;"/><line style="stroke:#181818;stroke-width:1;" x1="199.5205" x2="199.5205" y1="1196.6001" y2="1230.5688"/><polygon fill="#181818" points="195.5205,1220.5688,199.5205,1230.5688,203.5205,1220.5688,199.5205,1224.5688" style="stroke:#181818;stroke-width:1;"/><line style="stroke:#181818;stroke-width:1;" x1="71.623" x2="61.623" y1="1018.7251" y2="1018.7251"/><line style="stroke:#181818;stroke-width:1;" x1="61.623" x2="61.623" y1="1018.7251" y2="1040.7251"/><polygon fill="#181818" points="57.623,1030.7251,61.623,1040.7251,65.623,1030.7251,61.623,1034.7251" style="stroke:#181818;stroke-width:1;"/><line style="stroke:#181818;stroke-width:1;" x1="189.5205" x2="199.5205" y1="1018.7251" y2="1018.7251"/><line style="stroke:#181818;stroke-width:1;" x1="199.5205" x2="199.5205" y1="1018.7251" y2="1040.7251"/><polygon fill="#181818" points="195.5205,1030.7251,199.5205,1040.7251,203.5205,1030.7251,199.5205,1034.7251" style="stroke:#181818;stroke-width:1;"/><line style="stroke:#181818;stroke-width:1;" x1="130.5718" x2="130.5718" y1="975.0146" y2="1006.7251"/><polygon fill="#181818" points="126.5718,996.7251,130.5718,1006.7251,134.5718,996.7251,130.5718,1000.7251" style="stroke:#181818;stroke-width:1;"/><!--SRC=[VL6vRiCm3Dtz5HoJ8UZk34NXj427045Se4iNHgPZmJ9bI7JI_7tfC-Y1ZkIZtgLSC4YIxh4co9vsiFS5kMsIPful50J4GnItAQqZtHu2LOG2RR0i5BR9aLgTapGdUSWgv3FD64GIiNoEs-I4fhvYAD9SV3lYofKxQsYP3fr0BmAU8HORe-VJDjyD4rZ-9RiGlwCLG6WiTw8-mm33jUe9LuV9KDVsQTweQIcWT87MO2EisA-1lS3gHd6jjlf25bjPHQPMOo4AEBpTjMVobpi49UggU1nfUxQHLmM6FhMDRWdyCy5L4_nfNCNPnchX_MxtjPpFOcSCKJ7SIKKywHwfyPTxpPaZP3XHN-wOL54D5VLdacSNQQxXdtSJH9-6uWStgDrQT506typt0rr2NDZo2m00]--></g></svg>