<svg xmlns="http://www.w3.org/2000/svg" xmlns:xlink="http://www.w3.org/1999/xlink" contentStyleType="text/css" data-diagram-type="ACTIVITY" height="1419px" preserveAspectRatio="none" style="width:177px;height:1419px;background:#FFFFFF;" version="1.1" viewBox="0 0 177 1419" width="177px" zoomAndPan="magnify"><defs/><g><ellipse cx="84.5391" cy="20" fill="#222222" rx="10" ry="10" style="stroke:#222222;stroke-width:1;"/><rect fill="#F1F1F1" height="33.9688" rx="12.5" ry="12.5" style="stroke:#181818;stroke-width:0.5;" width="109.9063" x="29.5859" y="50"/><text fill="#000000" font-family="sans-serif" font-size="12" lengthAdjust="spacing" textLength="89.9063" x="39.5859" y="71.1387">Check weather</text><polygon fill="#F1F1F1" points="60.9438,103.9688,108.1343,103.9688,120.1343,115.9688,108.1343,127.9688,60.9438,127.9688,48.9438,115.9688,60.9438,103.9688" style="stroke:#181818;stroke-width:0.5;"/><text fill="#000000" font-family="sans-serif" font-size="11" lengthAdjust="spacing" textLength="19.0083" x="88.5391" y="138.1792">yes</text><text fill="#000000" font-family="sans-serif" font-size="11" lengthAdjust="spacing" textLength="47.1904" x="60.9438" y="119.7769">Is it dry?</text><text fill="#000000" font-family="sans-serif" font-size="11" lengthAdjust="spacing" textLength="13.7017" x="120.1343" y="113.3745">no</text><ellipse cx="155.8359" cy="115.9688" fill="none" rx="11" ry="11" style="stroke:#222222;stroke-width:1;"/><ellipse cx="155.8359" cy="115.9688" fill="#222222" rx="6" ry="6" style="stroke:#222222;stroke-width:1;"/><rect fill="#F1F1F1" height="33.9688" rx="12.5" ry="12.5" style="stroke:#181818;stroke-width:0.5;" width="112.9766" x="28.0508" y="159.6792"/><text fill="#000000" font-family="sans-serif" font-size="12" lengthAdjust="spacing" textLength="92.9766" x="38.0508" y="180.8179">Change clothes</text><rect fill="#F1F1F1" height="33.9688" rx="12.5" ry="12.5" style="stroke:#181818;stroke-width:0.5;" width="98.1992" x="35.4395" y="213.6479"/><text fill="#000000" font-family="sans-serif" font-size="12" lengthAdjust="spacing" textLength="78.1992" x="45.4395" y="234.7866">Put on watch</text><rect fill="#F1F1F1" height="33.9688" rx="12.5" ry="12.5" style="stroke:#181818;stroke-width:0.5;" width="122.1934" x="23.4424" y="267.6167"/><text fill="#000000" font-family="sans-serif" font-size="12" lengthAdjust="spacing" textLength="102.1934" x="33.4424" y="288.7554">Connect earbuds</text><rect fill="#F1F1F1" height="33.9688" rx="12.5" ry="12.5" style="stroke:#181818;stroke-width:0.5;" width="84.3184" x="42.3799" y="321.5854"/><text fill="#000000" font-family="sans-serif" font-size="12" lengthAdjust="spacing" textLength="64.3184" x="52.3799" y="342.7241">Play music</text><rect fill="#F1F1F1" height="33.9688" rx="12.5" ry="12.5" style="stroke:#181818;stroke-width:0.5;" width="89.457" x="39.8105" y="375.5542"/><text fill="#000000" font-family="sans-serif" font-size="12" lengthAdjust="spacing" textLength="69.457" x="49.8105" y="396.6929">Search GPS</text><rect fill="#F1F1F1" height="33.9688" rx="12.5" ry="12.5" style="stroke:#181818;stroke-width:0.5;" width="147.0781" x="11" y="429.5229"/><text fill="#000000" font-family="sans-serif" font-size="12" lengthAdjust="spacing" textLength="127.0781" x="21" y="450.6616">Put on running shoes</text><rect fill="#F1F1F1" height="33.9688" rx="12.5" ry="12.5" style="stroke:#181818;stroke-width:0.5;" width="84.6934" x="42.1924" y="483.4917"/><text fill="#000000" font-family="sans-serif" font-size="12" lengthAdjust="spacing" textLength="64.6934" x="52.1924" y="504.6304">Go outside</text><polygon fill="#F1F1F1" points="84.5391,537.4604,96.5391,549.4604,84.5391,561.4604,72.5391,549.4604,84.5391,537.4604" style="stroke:#181818;stroke-width:0.5;"/><polygon fill="#F1F1F1" points="42.9211,601.4604,126.157,601.4604,138.157,613.4604,126.157,625.4604,42.9211,625.4604,30.9211,613.4604,42.9211,601.4604" style="stroke:#181818;stroke-width:0.5;"/><text fill="#000000" font-family="sans-serif" font-size="11" lengthAdjust="spacing" textLength="19.0083" x="88.5391" y="635.6709">yes</text><text fill="#000000" font-family="sans-serif" font-size="11" lengthAdjust="spacing" textLength="83.2358" x="42.9211" y="617.2686">GPS connected</text><text fill="#000000" font-family="sans-serif" font-size="11" lengthAdjust="spacing" textLength="13.7017" x="138.157" y="610.8662">no</text><rect fill="#F1F1F1" height="33.9688" rx="12.5" ry="12.5" style="stroke:#181818;stroke-width:0.5;" width="108.5234" x="30.2773" y="657.1709"/><text fill="#000000" font-family="sans-serif" font-size="12" lengthAdjust="spacing" textLength="88.5234" x="40.2773" y="678.3096">Start Warm-up</text><rect fill="#F1F1F1" height="33.9688" rx="12.5" ry="12.5" style="stroke:#181818;stroke-width:0.5;" width="102.8398" x="33.1191" y="711.1396"/><text fill="#000000" font-family="sans-serif" font-size="12" lengthAdjust="spacing" textLength="82.8398" x="43.1191" y="732.2783">Start Running</text><rect fill="#F1F1F1" height="47.9375" rx="12.5" ry="12.5" style="stroke:#181818;stroke-width:0.5;" width="87.8398" x="40.6191" y="765.1084"/><text fill="#000000" font-family="sans-serif" font-size="12" lengthAdjust="spacing" textLength="53.3848" x="50.6191" y="786.2471">Ran 1km</text><text fill="#000000" font-family="sans-serif" font-size="12" lengthAdjust="spacing" textLength="67.8398" x="50.6191" y="800.2158">Check time</text><rect fill="#F1F1F1" height="47.9375" rx="12.5" ry="12.5" style="stroke:#181818;stroke-width:0.5;" width="87.8398" x="40.6191" y="833.0459"/><text fill="#000000" font-family="sans-serif" font-size="12" lengthAdjust="spacing" textLength="53.3848" x="50.6191" y="854.1846">Ran 2km</text><text fill="#000000" font-family="sans-serif" font-size="12" lengthAdjust="spacing" textLength="67.8398" x="50.6191" y="868.1533">Check time</text><rect fill="#F1F1F1" height="33.9688" rx="12.5" ry="12.5" style="stroke:#181818;stroke-width:0.5;" width="81.0195" x="44.0293" y="900.9834"/><text fill="#000000" font-family="sans-serif" font-size="12" lengthAdjust="spacing" textLength="61.0195" x="54.0293" y="922.1221">Ran 10km</text><rect fill="#F1F1F1" height="33.9688" rx="12.5" ry="12.5" style="stroke:#181818;stroke-width:0.5;" width="97.4023" x="35.8379" y="954.9521"/><text fill="#000000" font-family="sans-serif" font-size="12" lengthAdjust="spacing" textLength="77.4023" x="45.8379" y="976.0908">Stop running</text><rect fill="#F1F1F1" height="33.9688" rx="12.5" ry="12.5" style="stroke:#181818;stroke-width:0.5;" width="82.5898" x="43.2441" y="1008.9209"/><text fill="#000000" font-family="sans-serif" font-size="12" lengthAdjust="spacing" textLength="62.5898" x="53.2441" y="1030.0596">Cool down</text><rect fill="#F1F1F1" height="33.9688" rx="12.5" ry="12.5" style="stroke:#181818;stroke-width:0.5;" width="74.4746" x="47.3018" y="1062.8896"/><text fill="#000000" font-family="sans-serif" font-size="12" lengthAdjust="spacing" textLength="54.4746" x="57.3018" y="1084.0283">Go home</text><rect fill="#F1F1F1" height="33.9688" rx="12.5" ry="12.5" style="stroke:#181818;stroke-width:0.5;" width="46.6777" x="61.2002" y="1116.8584"/><text fill="#000000" font-family="sans-serif" font-size="12" lengthAdjust="spacing" textLength="26.6777" x="71.2002" y="1137.9971">Rest</text><rect fill="#F1F1F1" height="33.9688" rx="12.5" ry="12.5" style="stroke:#181818;stroke-width:0.5;" width="107.2695" x="30.9043" y="1170.8271"/><text fill="#000000" font-family="sans-serif" font-size="12" lengthAdjust="spacing" textLength="87.2695" x="40.9043" y="1191.9658">Take off shoes</text><rect fill="#F1F1F1" height="33.9688" rx="12.5" ry="12.5" style="stroke:#181818;stroke-width:0.5;" width="90.0664" x="39.5059" y="1224.7959"/><text fill="#000000" font-family="sans-serif" font-size="12" lengthAdjust="spacing" textLength="70.0664" x="49.5059" y="1245.9346">Drink water</text><rect fill="#F1F1F1" height="33.9688" rx="12.5" ry="12.5" style="stroke:#181818;stroke-width:0.5;" width="88.543" x="40.2676" y="1278.7646"/><text fill="#000000" font-family="sans-serif" font-size="12" lengthAdjust="spacing" textLength="68.543" x="50.2676" y="1299.9033">Check Print</text><rect fill="#F1F1F1" height="33.9688" rx="12.5" ry="12.5" style="stroke:#181818;stroke-width:0.5;" width="64.6953" x="52.1914" y="1332.7334"/><text fill="#000000" font-family="sans-serif" font-size="12" lengthAdjust="spacing" textLength="44.6953" x="62.1914" y="1353.8721">Shower</text><ellipse cx="84.5391" cy="1397.7021" fill="none" rx="11" ry="11" style="stroke:#222222;stroke-width:1;"/><ellipse cx="84.5391" cy="1397.7021" fill="#222222" rx="6" ry="6" style="stroke:#222222;stroke-width:1;"/><line style="stroke:#181818;stroke-width:1;" x1="84.5391" x2="84.5391" y1="30" y2="50"/><polygon fill="#181818" points="80.5391,40,84.5391,50,88.5391,40,84.5391,44" style="stroke:#181818;stroke-width:1;"/><line style="stroke:#181818;stroke-width:1;" x1="84.5391" x2="84.5391" y1="127.9688" y2="159.6792"/><polygon fill="#181818" points="80.5391,149.6792,84.5391,159.6792,88.5391,149.6792,84.5391,153.6792" style="stroke:#181818;stroke-width:1;"/><line style="stroke:#181818;stroke-width:1;" x1="120.1343" x2="144.8359" y1="115.9688" y2="115.9688"/><polygon fill="#181818" points="134.8359,111.9688,144.8359,115.9688,134.8359,119.9688,138.8359,115.9688" style="stroke:#181818;stroke-width:1;"/><line style="stroke:#181818;stroke-width:1;" x1="84.5391" x2="84.5391" y1="83.9688" y2="103.9688"/><polygon fill="#181818" points="80.5391,93.9688,84.5391,103.9688,88.5391,93.9688,84.5391,97.9688" style="stroke:#181818;stroke-width:1;"/><line style="stroke:#181818;stroke-width:1;" x1="84.5391" x2="84.5391" y1="193.6479" y2="213.6479"/><polygon fill="#181818" points="80.5391,203.6479,84.5391,213.6479,88.5391,203.6479,84.5391,207.6479" style="stroke:#181818;stroke-width:1;"/><line style="stroke:#181818;stroke-width:1;" x1="84.5391" x2="84.5391" y1="247.6167" y2="267.6167"/><polygon fill="#181818" points="80.5391,257.6167,84.5391,267.6167,88.5391,257.6167,84.5391,261.6167" style="stroke:#181818;stroke-width:1;"/><line style="stroke:#181818;stroke-width:1;" x1="84.5391" x2="84.5391" y1="301.5854" y2="321.5854"/><polygon fill="#181818" points="80.5391,311.5854,84.5391,321.5854,88.5391,311.5854,84.5391,315.5854" style="stroke:#181818;stroke-width:1;"/><line style="stroke:#181818;stroke-width:1;" x1="84.5391" x2="84.5391" y1="355.5542" y2="375.5542"/><polygon fill="#181818" points="80.5391,365.5542,84.5391,375.5542,88.5391,365.5542,84.5391,369.5542" style="stroke:#181818;stroke-width:1;"/><line style="stroke:#181818;stroke-width:1;" x1="84.5391" x2="84.5391" y1="409.5229" y2="429.5229"/><polygon fill="#181818" points="80.5391,419.5229,84.5391,429.5229,88.5391,419.5229,84.5391,423.5229" style="stroke:#181818;stroke-width:1;"/><line style="stroke:#181818;stroke-width:1;" x1="84.5391" x2="84.5391" y1="463.4917" y2="483.4917"/><polygon fill="#181818" points="80.5391,473.4917,84.5391,483.4917,88.5391,473.4917,84.5391,477.4917" style="stroke:#181818;stroke-width:1;"/><line style="stroke:#181818;stroke-width:1;" x1="84.5391" x2="84.5391" y1="561.4604" y2="601.4604"/><polygon fill="#181818" points="80.5391,591.4604,84.5391,601.4604,88.5391,591.4604,84.5391,595.4604" style="stroke:#181818;stroke-width:1;"/><line style="stroke:#181818;stroke-width:1;" x1="138.157" x2="150.157" y1="613.4604" y2="613.4604"/><polygon fill="#181818" points="146.157,581.4604,150.157,571.4604,154.157,581.4604,150.157,577.4604" style="stroke:#181818;stroke-width:1;"/><line style="stroke:#181818;stroke-width:1;" x1="150.157" x2="150.157" y1="549.4604" y2="613.4604"/><line style="stroke:#181818;stroke-width:1;" x1="150.157" x2="96.5391" y1="549.4604" y2="549.4604"/><polygon fill="#181818" points="106.5391,545.4604,96.5391,549.4604,106.5391,553.4604,102.5391,549.4604" style="stroke:#181818;stroke-width:1;"/><line style="stroke:#181818;stroke-width:1;" x1="84.5391" x2="84.5391" y1="517.4604" y2="537.4604"/><polygon fill="#181818" points="80.5391,527.4604,84.5391,537.4604,88.5391,527.4604,84.5391,531.4604" style="stroke:#181818;stroke-width:1;"/><line style="stroke:#181818;stroke-width:1;" x1="84.5391" x2="84.5391" y1="625.4604" y2="657.1709"/><polygon fill="#181818" points="80.5391,647.1709,84.5391,657.1709,88.5391,647.1709,84.5391,651.1709" style="stroke:#181818;stroke-width:1;"/><line style="stroke:#181818;stroke-width:1;" x1="84.5391" x2="84.5391" y1="691.1396" y2="711.1396"/><polygon fill="#181818" points="80.5391,701.1396,84.5391,711.1396,88.5391,701.1396,84.5391,705.1396" style="stroke:#181818;stroke-width:1;"/><line style="stroke:#181818;stroke-width:1;" x1="84.5391" x2="84.5391" y1="745.1084" y2="765.1084"/><polygon fill="#181818" points="80.5391,755.1084,84.5391,765.1084,88.5391,755.1084,84.5391,759.1084" style="stroke:#181818;stroke-width:1;"/><line style="stroke:#181818;stroke-width:1;" x1="84.5391" x2="84.5391" y1="813.0459" y2="833.0459"/><polygon fill="#181818" points="80.5391,823.0459,84.5391,833.0459,88.5391,823.0459,84.5391,827.0459" style="stroke:#181818;stroke-width:1;"/><line style="stroke:#181818;stroke-width:1;" x1="84.5391" x2="84.5391" y1="880.9834" y2="900.9834"/><polygon fill="#181818" points="80.5391,890.9834,84.5391,900.9834,88.5391,890.9834,84.5391,894.9834" style="stroke:#181818;stroke-width:1;"/><line style="stroke:#181818;stroke-width:1;" x1="84.5391" x2="84.5391" y1="934.9521" y2="954.9521"/><polygon fill="#181818" points="80.5391,944.9521,84.5391,954.9521,88.5391,944.9521,84.5391,948.9521" style="stroke:#181818;stroke-width:1;"/><line style="stroke:#181818;stroke-width:1;" x1="84.5391" x2="84.5391" y1="988.9209" y2="1008.9209"/><polygon fill="#181818" points="80.5391,998.9209,84.5391,1008.9209,88.5391,998.9209,84.5391,1002.9209" style="stroke:#181818;stroke-width:1;"/><line style="stroke:#181818;stroke-width:1;" x1="84.5391" x2="84.5391" y1="1042.8896" y2="1062.8896"/><polygon fill="#181818" points="80.5391,1052.8896,84.5391,1062.8896,88.5391,1052.8896,84.5391,1056.8896" style="stroke:#181818;stroke-width:1;"/><line style="stroke:#181818;stroke-width:1;" x1="84.5391" x2="84.5391" y1="1096.8584" y2="1116.8584"/><polygon fill="#181818" points="80.5391,1106.8584,84.5391,1116.8584,88.5391,1106.8584,84.5391,1110.8584" style="stroke:#181818;stroke-width:1;"/><line style="stroke:#181818;stroke-width:1;" x1="84.5391" x2="84.5391" y1="1150.8271" y2="1170.8271"/><polygon fill="#181818" points="80.5391,1160.8271,84.5391,1170.8271,88.5391,1160.8271,84.5391,1164.8271" style="stroke:#181818;stroke-width:1;"/><line style="stroke:#181818;stroke-width:1;" x1="84.5391" x2="84.5391" y1="1204.7959" y2="1224.7959"/><polygon fill="#181818" points="80.5391,1214.7959,84.5391,1224.7959,88.5391,1214.7959,84.5391,1218.7959" style="stroke:#181818;stroke-width:1;"/><line style="stroke:#181818;stroke-width:1;" x1="84.5391" x2="84.5391" y1="1258.7646" y2="1278.7646"/><polygon fill="#181818" points="80.5391,1268.7646,84.5391,1278.7646,88.5391,1268.7646,84.5391,1272.7646" style="stroke:#181818;stroke-width:1;"/><line style="stroke:#181818;stroke-width:1;" x1="84.5391" x2="84.5391" y1="1312.7334" y2="1332.7334"/><polygon fill="#181818" points="80.5391,1322.7334,84.5391,1332.7334,88.5391,1322.7334,84.5391,1326.7334" style="stroke:#181818;stroke-width:1;"/><line style="stroke:#181818;stroke-width:1;" x1="84.5391" x2="84.5391" y1="1366.7021" y2="1386.7021"/><polygon fill="#181818" points="80.5391,1376.7021,84.5391,1386.7021,88.5391,1376.7021,84.5391,1380.7021" style="stroke:#181818;stroke-width:1;"/><!--SRC=[RL6nReGm3Dtp5HvXgDJh24E7QtMw3HsLkdH9Wxb4W8qIHuY_Rm9SkpIBzPwU_PwT8DgBgiuMpG0BQh7eQ-LwAAu1d43drzSI4ajG49Sg2C_gVGm8nOgXL4YTwtE_fZk26Jb9Gwsg9WemmQB5s0JFJ8H60BN_Zjqc6FKAKmpE9D0ctbYuDErVguz4ZkuGB6yJBmmS9RWEQ-LnJb6F0ejrOygJki7iFjYLuCAM68Zbo5grULdur7vwYdFzmBVTAE6R9ZWDqnVjvn0tuS6-_CkUdeTf6yFp8-wsAu_GyK9xQCkx7eEayg471ExxtxNUlACXtodV_VY79d5Pt5fUCfrVDla1]--></g></svg>