<svg xmlns="http://www.w3.org/2000/svg" xmlns:xlink="http://www.w3.org/1999/xlink" contentStyleType="text/css" data-diagram-type="ACTIVITY" height="1416px" preserveAspectRatio="none" style="width:455px;height:1416px;background:#FFFFFF;" version="1.1" viewBox="0 0 455 1416" width="455px" zoomAndPan="magnify"><defs/><g><ellipse cx="142.5718" cy="20" fill="#222222" rx="10" ry="10" style="stroke:#222222;stroke-width:1;"/><rect fill="none" height="190.2031" style="stroke:#000000;stroke-width:1.5;" width="144.0215" x="70.561" y="40"/><path d="M181.6919,40 L181.6919,49.2969 L171.6919,59.2969 L70.561,59.2969" fill="none" style="stroke:#000000;stroke-width:1.5;"/><text fill="#000000" font-family="sans-serif" font-size="14" lengthAdjust="spacing" textLength="101.1309" x="73.561" y="53.9951">Prepare Model</text><rect fill="#F1F1F1" height="33.9688" rx="12.5" ry="12.5" style="stroke:#181818;stroke-width:0.5;" width="121.5254" x="81.8091" y="76.2969"/><text fill="#000000" font-family="sans-serif" font-size="12" lengthAdjust="spacing" textLength="101.5254" x="91.8091" y="97.4355">Make CAD Model</text><rect fill="#F1F1F1" height="33.9688" rx="12.5" ry="12.5" style="stroke:#181818;stroke-width:0.5;" width="124.0215" x="80.561" y="130.2656"/><text fill="#000000" font-family="sans-serif" font-size="12" lengthAdjust="spacing" textLength="104.0215" x="90.561" y="151.4043">Convert to stl-file</text><rect fill="#F1F1F1" height="33.9688" rx="12.5" ry="12.5" style="stroke:#181818;stroke-width:0.5;" width="110.9258" x="87.1089" y="184.2344"/><text fill="#000000" font-family="sans-serif" font-size="12" lengthAdjust="spacing" textLength="90.9258" x="97.1089" y="205.373">Preheat printer</text><rect fill="none" height="244.1719" style="stroke:#000000;stroke-width:1.5;" width="205.6855" x="39.729" y="284.2031"/><path d="M120.0503,284.2031 L120.0503,293.5 L110.0503,303.5 L39.729,303.5" fill="none" style="stroke:#000000;stroke-width:1.5;"/><text fill="#000000" font-family="sans-serif" font-size="14" lengthAdjust="spacing" textLength="70.3213" x="42.729" y="298.1982">Slice print</text><rect fill="#F1F1F1" height="33.9688" rx="12.5" ry="12.5" style="stroke:#181818;stroke-width:0.5;" width="185.6855" x="49.729" y="320.5"/><text fill="#000000" font-family="sans-serif" font-size="12" lengthAdjust="spacing" textLength="165.6855" x="59.729" y="341.6387">Set/Change printer settings</text><rect fill="#F1F1F1" height="33.9688" rx="12.5" ry="12.5" style="stroke:#181818;stroke-width:0.5;" width="80.2754" x="102.4341" y="374.4688"/><text fill="#000000" font-family="sans-serif" font-size="12" lengthAdjust="spacing" textLength="60.2754" x="112.4341" y="395.6074">Slice print</text><rect fill="#F1F1F1" height="33.9688" rx="12.5" ry="12.5" style="stroke:#181818;stroke-width:0.5;" width="128.9141" x="78.1147" y="428.4375"/><text fill="#000000" font-family="sans-serif" font-size="12" lengthAdjust="spacing" textLength="108.9141" x="88.1147" y="449.5762">Put file on sd-card</text><rect fill="#F1F1F1" height="33.9688" rx="12.5" ry="12.5" style="stroke:#181818;stroke-width:0.5;" width="150.1309" x="67.5063" y="482.4063"/><text fill="#000000" font-family="sans-serif" font-size="12" lengthAdjust="spacing" textLength="130.1309" x="77.5063" y="503.5449">Put SD-card in printer</text><polygon fill="#F1F1F1" points="142.5718,552.3281,154.5718,564.3281,142.5718,576.3281,130.5718,564.3281,142.5718,552.3281" style="stroke:#181818;stroke-width:0.5;"/><polygon fill="#F1F1F1" points="70.54,656.3125,214.6035,656.3125,226.6035,668.3125,214.6035,680.3125,70.54,680.3125,58.54,668.3125,70.54,656.3125" style="stroke:#181818;stroke-width:0.5;"/><text fill="#000000" font-family="sans-serif" font-size="11" lengthAdjust="spacing" textLength="19.0083" x="146.5718" y="690.5229">yes</text><text fill="#000000" font-family="sans-serif" font-size="11" lengthAdjust="spacing" textLength="144.0635" x="70.54" y="672.1206">Printer up to Temperature</text><text fill="#000000" font-family="sans-serif" font-size="11" lengthAdjust="spacing" textLength="13.7017" x="226.6035" y="665.7183">no</text><rect fill="#F1F1F1" height="33.9688" rx="12.5" ry="12.5" style="stroke:#181818;stroke-width:0.5;" width="104.5625" x="250.6035" y="592.3438"/><text fill="#000000" font-family="sans-serif" font-size="12" lengthAdjust="spacing" textLength="84.5625" x="260.6035" y="613.4824">Wait a minute</text><rect fill="none" height="136.2344" style="stroke:#000000;stroke-width:1.5;" width="138.0977" x="73.5229" y="702.0229"/><path d="M115.9731,702.0229 L115.9731,711.3198 L105.9731,721.3198 L73.5229,721.3198" fill="none" style="stroke:#000000;stroke-width:1.5;"/><text fill="#000000" font-family="sans-serif" font-size="14" lengthAdjust="spacing" textLength="32.4502" x="76.5229" y="716.0181">Print</text><rect fill="#F1F1F1" height="33.9688" rx="12.5" ry="12.5" style="stroke:#181818;stroke-width:0.5;" width="81.3242" x="101.9097" y="738.3198"/><text fill="#000000" font-family="sans-serif" font-size="12" lengthAdjust="spacing" textLength="61.3242" x="111.9097" y="759.4585">Start print</text><rect fill="#F1F1F1" height="33.9688" rx="12.5" ry="12.5" style="stroke:#181818;stroke-width:0.5;" width="118.0977" x="83.5229" y="792.2886"/><text fill="#000000" font-family="sans-serif" font-size="12" lengthAdjust="spacing" textLength="98.0977" x="93.5229" y="813.4272">Check first layer</text><polygon fill="#F1F1F1" points="142.5718,250.2031,154.5718,262.2031,142.5718,274.2031,130.5718,262.2031,142.5718,250.2031" style="stroke:#181818;stroke-width:0.5;"/><polygon fill="#F1F1F1" points="95.145,858.2573,189.9985,858.2573,201.9985,870.2573,189.9985,882.2573,95.145,882.2573,83.145,870.2573,95.145,858.2573" style="stroke:#181818;stroke-width:0.5;"/><text fill="#000000" font-family="sans-serif" font-size="11" lengthAdjust="spacing" textLength="13.7017" x="146.5718" y="892.4678">no</text><text fill="#000000" font-family="sans-serif" font-size="11" lengthAdjust="spacing" textLength="94.8535" x="95.145" y="874.0654">First layer failed?</text><text fill="#000000" font-family="sans-serif" font-size="11" lengthAdjust="spacing" textLength="19.0083" x="201.9985" y="867.6631">yes</text><rect fill="#F1F1F1" height="33.9688" rx="12.5" ry="12.5" style="stroke:#181818;stroke-width:0.5;" width="79.291" x="365.166" y="538.375"/><text fill="#000000" font-family="sans-serif" font-size="12" lengthAdjust="spacing" textLength="59.291" x="375.166" y="559.5137">Stop print</text><rect fill="#F1F1F1" height="33.9688" rx="12.5" ry="12.5" style="stroke:#181818;stroke-width:0.5;" width="105.9688" x="89.5874" y="913.9678"/><text fill="#000000" font-family="sans-serif" font-size="12" lengthAdjust="spacing" textLength="85.9688" x="99.5874" y="935.1064">Continue print</text><polygon fill="#F1F1F1" points="142.5718,967.9365,154.5718,979.9365,142.5718,991.9365,130.5718,979.9365,142.5718,967.9365" style="stroke:#181818;stroke-width:0.5;"/><polygon fill="#F1F1F1" points="103.4514,1065.9053,181.6921,1065.9053,193.6921,1077.9053,181.6921,1089.9053,103.4514,1089.9053,91.4514,1077.9053,103.4514,1065.9053" style="stroke:#181818;stroke-width:0.5;"/><text fill="#000000" font-family="sans-serif" font-size="11" lengthAdjust="spacing" textLength="19.0083" x="146.5718" y="1100.1157">yes</text><text fill="#000000" font-family="sans-serif" font-size="11" lengthAdjust="spacing" textLength="78.2407" x="103.4514" y="1081.7134">Print finished?</text><text fill="#000000" font-family="sans-serif" font-size="11" lengthAdjust="spacing" textLength="13.7017" x="193.6921" y="1075.311">no</text><rect fill="#F1F1F1" height="33.9688" rx="12.5" ry="12.5" style="stroke:#181818;stroke-width:0.5;" width="45.207" x="217.6921" y="1001.9365"/><text fill="#000000" font-family="sans-serif" font-size="12" lengthAdjust="spacing" textLength="25.207" x="227.6921" y="1023.0752">wait</text><rect fill="none" height="294.1406" style="stroke:#000000;stroke-width:1.5;" width="287.5703" x="11" y="1111.6157"/><path d="M98.7725,1111.6157 L98.7725,1120.9126 L88.7725,1130.9126 L11,1130.9126" fill="none" style="stroke:#000000;stroke-width:1.5;"/><text fill="#000000" font-family="sans-serif" font-size="14" lengthAdjust="spacing" textLength="77.7725" x="14" y="1125.6108">Finish Print</text><polygon fill="#F1F1F1" points="95.623,1147.9126,189.5205,1147.9126,201.5205,1159.9126,189.5205,1171.9126,95.623,1171.9126,83.623,1159.9126,95.623,1147.9126" style="stroke:#181818;stroke-width:0.5;"/><text fill="#000000" font-family="sans-serif" font-size="11" lengthAdjust="spacing" textLength="93.8975" x="95.623" y="1163.7207">Print succeeded?</text><text fill="#000000" font-family="sans-serif" font-size="11" lengthAdjust="spacing" textLength="13.7017" x="69.9214" y="1157.3184">no</text><text fill="#000000" font-family="sans-serif" font-size="11" lengthAdjust="spacing" textLength="19.0083" x="201.5205" y="1157.3184">yes</text><rect fill="#F1F1F1" height="33.9688" rx="12.5" ry="12.5" style="stroke:#181818;stroke-width:0.5;" width="101.2461" x="23" y="1181.9126"/><text fill="#000000" font-family="sans-serif" font-size="12" lengthAdjust="spacing" textLength="81.2461" x="33" y="1203.0513">Remove print</text><rect fill="#F1F1F1" height="33.9688" rx="12.5" ry="12.5" style="stroke:#181818;stroke-width:0.5;" width="80.4863" x="33.3799" y="1235.8813"/><text fill="#000000" font-family="sans-serif" font-size="12" lengthAdjust="spacing" textLength="60.4863" x="43.3799" y="1257.02">Clean bed</text><rect fill="#F1F1F1" height="33.9688" rx="12.5" ry="12.5" style="stroke:#181818;stroke-width:0.5;" width="79.8887" x="33.6787" y="1289.8501"/><text fill="#000000" font-family="sans-serif" font-size="12" lengthAdjust="spacing" textLength="59.8887" x="43.6787" y="1310.9888">Start over</text><ellipse cx="73.623" cy="1368.7876" fill="none" rx="11" ry="11" style="stroke:#222222;stroke-width:1;"/><ellipse cx="73.623" cy="1368.7876" fill="#222222" rx="6" ry="6" style="stroke:#222222;stroke-width:1;"/><rect fill="#F1F1F1" height="33.9688" rx="12.5" ry="12.5" style="stroke:#181818;stroke-width:0.5;" width="101.2461" x="160.8975" y="1181.9126"/><text fill="#000000" font-family="sans-serif" font-size="12" lengthAdjust="spacing" textLength="81.2461" x="170.8975" y="1203.0513">Remove print</text><rect fill="#F1F1F1" height="33.9688" rx="12.5" ry="12.5" style="stroke:#181818;stroke-width:0.5;" width="80.4863" x="171.2773" y="1235.8813"/><text fill="#000000" font-family="sans-serif" font-size="12" lengthAdjust="spacing" textLength="60.4863" x="181.2773" y="1257.02">Clean bed</text><rect fill="#F1F1F1" height="47.9375" rx="12.5" ry="12.5" style="stroke:#181818;stroke-width:0.5;" width="134.0996" x="144.4707" y="1289.8501"/><text fill="#000000" font-family="sans-serif" font-size="12" lengthAdjust="spacing" textLength="87.7676" x="154.4707" y="1310.9888">Remove exces</text><text fill="#000000" font-family="sans-serif" font-size="12" lengthAdjust="spacing" textLength="114.0996" x="154.4707" y="1324.9575">material from print</text><ellipse cx="211.5205" cy="1382.7563" fill="none" rx="11" ry="11" style="stroke:#222222;stroke-width:1;"/><ellipse cx="211.5205" cy="1382.7563" fill="#222222" rx="6" ry="6" style="stroke:#222222;stroke-width:1;"/><line style="stroke:#181818;stroke-width:1;" x1="142.5718" x2="142.5718" y1="110.2656" y2="130.2656"/><polygon fill="#181818" points="138.5718,120.2656,142.5718,130.2656,146.5718,120.2656,142.5718,124.2656" style="stroke:#181818;stroke-width:1;"/><line style="stroke:#181818;stroke-width:1;" x1="142.5718" x2="142.5718" y1="164.2344" y2="184.2344"/><polygon fill="#181818" points="138.5718,174.2344,142.5718,184.2344,146.5718,174.2344,142.5718,178.2344" style="stroke:#181818;stroke-width:1;"/><line style="stroke:#181818;stroke-width:1;" x1="142.5718" x2="142.5718" y1="30" y2="76.2969"/><polygon fill="#181818" points="138.5718,66.2969,142.5718,76.2969,146.5718,66.2969,142.5718,70.2969" style="stroke:#181818;stroke-width:1;"/><line style="stroke:#181818;stroke-width:1;" x1="142.5718" x2="142.5718" y1="354.4688" y2="374.4688"/><polygon fill="#181818" points="138.5718,364.4688,142.5718,374.4688,146.5718,364.4688,142.5718,368.4688" style="stroke:#181818;stroke-width:1;"/><line style="stroke:#181818;stroke-width:1;" x1="142.5718" x2="142.5718" y1="408.4375" y2="428.4375"/><polygon fill="#181818" points="138.5718,418.4375,142.5718,428.4375,146.5718,418.4375,142.5718,422.4375" style="stroke:#181818;stroke-width:1;"/><line style="stroke:#181818;stroke-width:1;" x1="142.5718" x2="142.5718" y1="462.4063" y2="482.4063"/><polygon fill="#181818" points="138.5718,472.4063,142.5718,482.4063,146.5718,472.4063,142.5718,476.4063" style="stroke:#181818;stroke-width:1;"/><line style="stroke:#181818;stroke-width:1;" x1="142.5718" x2="142.5718" y1="576.3281" y2="656.3125"/><polygon fill="#181818" points="138.5718,646.3125,142.5718,656.3125,146.5718,646.3125,142.5718,650.3125" style="stroke:#181818;stroke-width:1;"/><line style="stroke:#181818;stroke-width:1;" x1="226.6035" x2="302.8848" y1="668.3125" y2="668.3125"/><line style="stroke:#181818;stroke-width:1;" x1="302.8848" x2="302.8848" y1="626.3125" y2="668.3125"/><polygon fill="#181818" points="298.8848,636.3125,302.8848,626.3125,306.8848,636.3125,302.8848,632.3125" style="stroke:#181818;stroke-width:1;"/><line style="stroke:#181818;stroke-width:1;" x1="302.8848" x2="302.8848" y1="564.3281" y2="592.3438"/><line style="stroke:#181818;stroke-width:1;" x1="302.8848" x2="154.5718" y1="564.3281" y2="564.3281"/><polygon fill="#181818" points="164.5718,560.3281,154.5718,564.3281,164.5718,568.3281,160.5718,564.3281" style="stroke:#181818;stroke-width:1;"/><line style="stroke:#181818;stroke-width:1;" x1="142.5718" x2="142.5718" y1="516.375" y2="552.3281"/><polygon fill="#181818" points="138.5718,542.3281,142.5718,552.3281,146.5718,542.3281,142.5718,546.3281" style="stroke:#181818;stroke-width:1;"/><line style="stroke:#181818;stroke-width:1;" x1="142.5718" x2="142.5718" y1="772.2886" y2="792.2886"/><polygon fill="#181818" points="138.5718,782.2886,142.5718,792.2886,146.5718,782.2886,142.5718,786.2886" style="stroke:#181818;stroke-width:1;"/><line style="stroke:#181818;stroke-width:1;" x1="142.5718" x2="142.5718" y1="680.3125" y2="738.3198"/><polygon fill="#181818" points="138.5718,728.3198,142.5718,738.3198,146.5718,728.3198,142.5718,732.3198" style="stroke:#181818;stroke-width:1;"/><line style="stroke:#181818;stroke-width:1;" x1="142.5718" x2="142.5718" y1="274.2031" y2="320.5"/><polygon fill="#181818" points="138.5718,310.5,142.5718,320.5,146.5718,310.5,142.5718,314.5" style="stroke:#181818;stroke-width:1;"/><line style="stroke:#181818;stroke-width:1;" x1="201.9985" x2="404.8115" y1="870.2573" y2="870.2573"/><line style="stroke:#181818;stroke-width:1;" x1="404.8115" x2="404.8115" y1="572.3438" y2="870.2573"/><polygon fill="#181818" points="400.8115,582.3438,404.8115,572.3438,408.8115,582.3438,404.8115,578.3438" style="stroke:#181818;stroke-width:1;"/><line style="stroke:#181818;stroke-width:1;" x1="404.8115" x2="404.8115" y1="262.2031" y2="538.375"/><line style="stroke:#181818;stroke-width:1;" x1="404.8115" x2="154.5718" y1="262.2031" y2="262.2031"/><polygon fill="#181818" points="164.5718,258.2031,154.5718,262.2031,164.5718,266.2031,160.5718,262.2031" style="stroke:#181818;stroke-width:1;"/><line style="stroke:#181818;stroke-width:1;" x1="142.5718" x2="142.5718" y1="826.2573" y2="858.2573"/><polygon fill="#181818" points="138.5718,848.2573,142.5718,858.2573,146.5718,848.2573,142.5718,852.2573" style="stroke:#181818;stroke-width:1;"/><line style="stroke:#181818;stroke-width:1;" x1="142.5718" x2="142.5718" y1="218.2031" y2="250.2031"/><polygon fill="#181818" points="138.5718,240.2031,142.5718,250.2031,146.5718,240.2031,142.5718,244.2031" style="stroke:#181818;stroke-width:1;"/><line style="stroke:#181818;stroke-width:1;" x1="142.5718" x2="142.5718" y1="882.2573" y2="913.9678"/><polygon fill="#181818" points="138.5718,903.9678,142.5718,913.9678,146.5718,903.9678,142.5718,907.9678" style="stroke:#181818;stroke-width:1;"/><line style="stroke:#181818;stroke-width:1;" x1="142.5718" x2="142.5718" y1="991.9365" y2="1065.9053"/><polygon fill="#181818" points="138.5718,1055.9053,142.5718,1065.9053,146.5718,1055.9053,142.5718,1059.9053" style="stroke:#181818;stroke-width:1;"/><line style="stroke:#181818;stroke-width:1;" x1="193.6921" x2="240.2957" y1="1077.9053" y2="1077.9053"/><line style="stroke:#181818;stroke-width:1;" x1="240.2957" x2="240.2957" y1="1035.9053" y2="1077.9053"/><polygon fill="#181818" points="236.2957,1045.9053,240.2957,1035.9053,244.2957,1045.9053,240.2957,1041.9053" style="stroke:#181818;stroke-width:1;"/><line style="stroke:#181818;stroke-width:1;" x1="240.2957" x2="240.2957" y1="979.9365" y2="1001.9365"/><line style="stroke:#181818;stroke-width:1;" x1="240.2957" x2="154.5718" y1="979.9365" y2="979.9365"/><polygon fill="#181818" points="164.5718,975.9365,154.5718,979.9365,164.5718,983.9365,160.5718,979.9365" style="stroke:#181818;stroke-width:1;"/><line style="stroke:#181818;stroke-width:1;" x1="142.5718" x2="142.5718" y1="947.9365" y2="967.9365"/><polygon fill="#181818" points="138.5718,957.9365,142.5718,967.9365,146.5718,957.9365,142.5718,961.9365" style="stroke:#181818;stroke-width:1;"/><line style="stroke:#181818;stroke-width:1;" x1="73.623" x2="73.623" y1="1215.8813" y2="1235.8813"/><polygon fill="#181818" points="69.623,1225.8813,73.623,1235.8813,77.623,1225.8813,73.623,1229.8813" style="stroke:#181818;stroke-width:1;"/><line style="stroke:#181818;stroke-width:1;" x1="73.623" x2="73.623" y1="1269.8501" y2="1289.8501"/><polygon fill="#181818" points="69.623,1279.8501,73.623,1289.8501,77.623,1279.8501,73.623,1283.8501" style="stroke:#181818;stroke-width:1;"/><line style="stroke:#181818;stroke-width:1;" x1="73.623" x2="73.623" y1="1323.8188" y2="1357.7876"/><polygon fill="#181818" points="69.623,1347.7876,73.623,1357.7876,77.623,1347.7876,73.623,1351.7876" style="stroke:#181818;stroke-width:1;"/><line style="stroke:#181818;stroke-width:1;" x1="211.5205" x2="211.5205" y1="1215.8813" y2="1235.8813"/><polygon fill="#181818" points="207.5205,1225.8813,211.5205,1235.8813,215.5205,1225.8813,211.5205,1229.8813" style="stroke:#181818;stroke-width:1;"/><line style="stroke:#181818;stroke-width:1;" x1="211.5205" x2="211.5205" y1="1269.8501" y2="1289.8501"/><polygon fill="#181818" points="207.5205,1279.8501,211.5205,1289.8501,215.5205,1279.8501,211.5205,1283.8501" style="stroke:#181818;stroke-width:1;"/><line style="stroke:#181818;stroke-width:1;" x1="211.5205" x2="211.5205" y1="1337.7876" y2="1371.7563"/><polygon fill="#181818" points="207.5205,1361.7563,211.5205,1371.7563,215.5205,1361.7563,211.5205,1365.7563" style="stroke:#181818;stroke-width:1;"/><line style="stroke:#181818;stroke-width:1;" x1="83.623" x2="73.623" y1="1159.9126" y2="1159.9126"/><line style="stroke:#181818;stroke-width:1;" x1="73.623" x2="73.623" y1="1159.9126" y2="1181.9126"/><polygon fill="#181818" points="69.623,1171.9126,73.623,1181.9126,77.623,1171.9126,73.623,1175.9126" style="stroke:#181818;stroke-width:1;"/><line style="stroke:#181818;stroke-width:1;" x1="201.5205" x2="211.5205" y1="1159.9126" y2="1159.9126"/><line style="stroke:#181818;stroke-width:1;" x1="211.5205" x2="211.5205" y1="1159.9126" y2="1181.9126"/><polygon fill="#181818" points="207.5205,1171.9126,211.5205,1181.9126,215.5205,1171.9126,211.5205,1175.9126" style="stroke:#181818;stroke-width:1;"/><line style="stroke:#181818;stroke-width:1;" x1="142.5718" x2="142.5718" y1="1089.9053" y2="1147.9126"/><polygon fill="#181818" points="138.5718,1137.9126,142.5718,1147.9126,146.5718,1137.9126,142.5718,1141.9126" style="stroke:#181818;stroke-width:1;"/><!--SRC=[ZL4zRy903DtlLtY40NKFGrK5g1YG4AdKfOj977BYSXVTEL3-VNtveaAewcZxsUyzlupHiththcrWxwb1Jx1p1HcLxF1CaBwj-dgfajJP2ta6TX3OB4fjIBgoLH4oD5vR9hzKP0iunOFgG8rCr17pynLzaMJicXwtL1q2CgDpwbigoOXVqWhjYSPZ48XPsrCGdb_GoDeoH07WB8HYaSlvePkjkWgq_O-aJzGC2BMsBOiRtutXMiNJi_sWGeIAvm-g6_B8hQSvw00pw-PW7SFiHc4-_R2t4jywYKqhoiyYrmS6WxUeQFsWQAJSt45GehIArvuiSlHiGjjb8OzffuSy-hgAhwTsH8RLePhkFZEnwI23bsqvReOspucARfKhieEK0zNkSaycDOGMZXJpwDyWKt4S97orDe46gh_sXX5zvnI-R8qIWaO3fNVrYE_EIQwwlAVx0m00]--></g></svg>